<svg width="40" height="46" viewBox="0 0 40 46" fill="none" xmlns="http://www.w3.org/2000/svg">
<path d="M37.7778 7.44401C36.4444 7.44401 35.5556 8.55512 35.5556 9.88845V31.8885C35.5556 33.2218 36.4444 34.1107 37.7778 34.3329C39.1111 34.3329 40 33.2218 40 31.8885V9.88845C40 8.55512 39.1111 7.44401 37.7778 7.44401ZM29.7778 0.777344H3.55556C1.55556 0.777344 0 2.3329 0 4.3329V34.9996C0 36.9996 1.55556 38.5551 3.55556 38.5551H6.66667V42.9996C6.66667 44.3329 7.55556 45.2218 8.88889 45.2218H22.2222C23.5556 45.2218 24.4444 44.3329 24.4444 42.9996V38.5551H29.7778C31.7778 38.5551 33.3333 36.9996 33.3333 34.9996V4.3329C33.3333 2.3329 31.7778 0.777344 29.7778 0.777344ZM4.44444 14.1107H11.1111V18.5551H4.44444V14.1107ZM20 20.7773V25.2218H13.3333V20.7773H20ZM13.3333 18.5551V14.1107H20V18.5551H13.3333ZM20 27.444V31.8885H13.3333V27.444H20ZM4.44444 20.7773H11.1111V25.2218H4.44444V20.7773ZM4.44444 31.8885V27.444H11.1111V31.8885H4.44444ZM11.1111 42.9996H8.88889V38.5551H11.1111V42.9996ZM22.2222 42.9996H15.5556V38.5551H22.2222V42.9996ZM28.8889 31.8885H22.2222V27.444H28.8889V31.8885ZM28.8889 25.2218H22.2222V20.7773H28.8889V25.2218ZM28.8889 18.5551H22.2222V14.1107H28.8889V18.5551ZM28.8889 9.66623H4.44444V5.22179H28.8889V9.66623Z" fill="#EB5757"/>
</svg>
